<?xml version="1.0" encoding="utf-8"?>
<!-- Generator: Adobe Illustrator 25.4.1, SVG Export Plug-In . SVG Version: 6.00 Build 0)  -->
<svg version="1.1" id="Layer_1" xmlns="http://www.w3.org/2000/svg" xmlns:xlink="http://www.w3.org/1999/xlink" x="0px" y="0px"
	 viewBox="0 0 48 48" style="enable-background:new 0 0 48 48;" xml:space="preserve">
<style type="text/css">
	.st0{fill:#FFFFFF;}
	.st1{fill:#212224;}
</style>
<path class="st0" d="M10,0h28c5.5,0,10,4.5,10,10v28c0,5.5-4.5,10-10,10H10C4.5,48,0,43.5,0,38V10C0,4.5,4.5,0,10,0z"/>
<path class="st1" d="M33.4,18.5l-4-9.7c-0.3-0.7-1-1-1.7-0.7l-9.6,4c-0.7,0.3-1,1-0.7,1.7l4,9.7c0.3,0.7,1,1,1.7,0.7l9.6-4
	C33.3,20,33.6,19.2,33.4,18.5z"/>
<path class="st1" d="M25.5,25.5V36c0,0.7,0.6,1.3,1.3,1.3h10.3c0.7,0,1.3-0.6,1.3-1.3V25.5c0-0.7-0.6-1.3-1.3-1.3H26.8
	C26.1,24.2,25.5,24.8,25.5,25.5z"/>
<path class="st1" d="M16.6,37.3l7.3-7.4c0.5-0.5,0.5-1.3,0-1.9l-7.3-7.4c-0.5-0.5-1.3-0.5-1.8,0L7.4,28c-0.5,0.5-0.5,1.3,0,1.9
	l7.3,7.4C15.2,37.8,16.1,37.8,16.6,37.3z"/>
</svg>
